<?xml version="1.0" encoding="UTF-8"?>
<svg version="1.1" xmlns="http://www.w3.org/2000/svg" width="32" height="20">
<path d="M0 0 C0.639375 0.61875 1.27875 1.2375 1.9375 1.875 C2.5975 1.545 3.2575 1.215 3.9375 0.875 C3.67836272 7.22386348 1.55004026 10.5438614 -3.0625 14.875 C-6.82142179 16.75446089 -10.97013051 16.40433291 -15.0625 15.875 C-17.83475005 14.79495322 -20.34339755 13.52573027 -22.93359375 12.06640625 C-25.13668697 10.74619058 -25.13668697 10.74619058 -28.0625 9.875 C-27.98259578 7.15825638 -27.50423356 5.38864367 -25.71875 3.3125 C-17.73971315 -3.94116986 -9.36998414 -6.50162165 0 0 Z M-11.0625 2.875 C-11.0625 3.535 -11.0625 4.195 -11.0625 4.875 C-10.4025 4.545 -9.7425 4.215 -9.0625 3.875 C-9.7225 3.545 -10.3825 3.215 -11.0625 2.875 Z M-3.0625 5.875 C-3.3925 6.865 -3.7225 7.855 -4.0625 8.875 C-3.0725 8.545 -2.0825 8.215 -1.0625 7.875 C-1.7225 7.215 -2.3825 6.555 -3.0625 5.875 Z M-23.0625 7.875 C-23.3925 8.535 -23.7225 9.195 -24.0625 9.875 C-23.0725 9.545 -22.0825 9.215 -21.0625 8.875 C-21.7225 8.545 -22.3825 8.215 -23.0625 7.875 Z " fill="#52A69D" transform="translate(28.0625,4.125)"/>
<path d="M0 0 C3.0625 2.5 3.0625 2.5 5 5 C5 5.66 5 6.32 5 7 C2.70157352 6.48923856 0.67450741 5.86166565 -1.5 4.9375 C-4.17921926 3.76591771 -4.17921926 3.76591771 -8 4 C-8 4.99 -8 5.98 -8 7 C-7.01 7 -6.02 7 -5 7 C-5.875 11.875 -5.875 11.875 -7 13 C-9.4375 13.1875 -9.4375 13.1875 -12 13 C-14.1385485 10.8614515 -14.42655063 9.86724686 -15 7 C-15.99 8.485 -15.99 8.485 -17 10 C-17 9.34 -17 8.68 -17 8 C-18.32 8 -19.64 8 -21 8 C-21.99 7.67 -22.98 7.34 -24 7 C-16.81067458 0.05780764 -9.91946833 -4.22426028 0 0 Z " fill="#237E84" transform="translate(25,2)"/>
<path d="M0 0 C9.88344059 0.61243542 9.88344059 0.61243542 13 4 C13 4.66 13 5.32 13 6 C12.4225 6.268125 11.845 6.53625 11.25 6.8125 C8.95215329 7.92423585 8.95215329 7.92423585 7.0625 9.625 C4.53440331 11.31039779 2.97832406 11.24819367 0 11 C0.680625 10.4225 1.36125 9.845 2.0625 9.25 C4.23939709 7.23404424 4.23939709 7.23404424 3.9375 4.9375 C2.91254248 2.81925446 1.68761541 1.61443967 0 0 Z " fill="#C95C87" transform="translate(15,5)"/>
<path d="M0 0 C1.32 0 2.64 0 4 0 C4 0.99 4 1.98 4 3 C4.99 3 5.98 3 7 3 C6.125 7.875 6.125 7.875 5 9 C2.5625 9.1875 2.5625 9.1875 0 9 C-2 7 -2 7 -2.25 4.5 C-2 2 -2 2 0 0 Z " fill="#266371" transform="translate(13,6)"/>
<path d="M0 0 C0.33 0.66 0.66 1.32 1 2 C2.65 1.34 4.3 0.68 6 0 C6.28875 0.94875 6.5775 1.8975 6.875 2.875 C7.76825109 6.05211578 7.76825109 6.05211578 10 8 C3.375 7.25 3.375 7.25 0 5 C-2.64632287 5.3121764 -2.64632287 5.3121764 -5 6 C-4.75 4.125 -4.75 4.125 -4 2 C-1.9375 0.75 -1.9375 0.75 0 0 Z " fill="#87BAB4" transform="translate(5,8)"/>
<path d="M0 0 C4.35834901 0.51274694 7.95893419 1.34212685 12 3 C13.9924325 3.37593066 15.9918674 3.71979545 18 4 C18 4.66 18 5.32 18 6 C10.75420281 6.67090715 6.24161903 4.58125682 0 1 C0 0.67 0 0.34 0 0 Z " fill="#2B7277" transform="translate(3,14)"/>
<path d="M0 0 C0.33 0 0.66 0 1 0 C1.50769231 6.4 1.50769231 6.4 -2.0625 9.4375 C-2.701875 9.953125 -3.34125 10.46875 -4 11 C-4 10.34 -4 9.68 -4 9 C-4.99 9.66 -5.98 10.32 -7 11 C-9.1875 10.625 -9.1875 10.625 -11 10 C-10.45730469 9.69707031 -9.91460938 9.39414063 -9.35546875 9.08203125 C-5.01576551 6.54076359 -2.26176989 4.65658507 0 0 Z " fill="#79C0B5" transform="translate(31,5)"/>
<path d="M0 0 C4.02545534 0.28084572 5.74482626 0.78365704 8.875 3.4375 C11 6 11 6 11 8 C10.34 8 9.68 8 9 8 C8.5875 7.566875 8.175 7.13375 7.75 6.6875 C5.44703684 4.46678553 2.88157583 3.34473539 0 2 C0 1.34 0 0.68 0 0 Z " fill="#389D9C" transform="translate(19,1)"/>
<path d="M0 0 C2.4375 0.75 2.4375 0.75 5 2 C5.8125 4.125 5.8125 4.125 6 6 C4.33388095 6.042721 2.66617115 6.04063832 1 6 C0 5 0 5 -0.0625 2.4375 C-0.041875 1.633125 -0.02125 0.82875 0 0 Z " fill="#2C898E" transform="translate(12,9)"/>
<path d="M0 0 C-0.78375 0.598125 -1.5675 1.19625 -2.375 1.8125 C-5.14574323 3.91085249 -5.14574323 3.91085249 -7 7 C-7 6.34 -7 5.68 -7 5 C-7.66 5 -8.32 5 -9 5 C-9 4.01 -9 3.02 -9 2 C-5.5647952 -0.29013653 -4.014669 -0.17842973 0 0 Z " fill="#499791" transform="translate(15,5)"/>
<path d="M0 0 C0.33 0 0.66 0 1 0 C1.433125 1.423125 1.433125 1.423125 1.875 2.875 C2.76825109 6.05211578 2.76825109 6.05211578 5 8 C2.69 7.67 0.38 7.34 -2 7 C-1.125 1.125 -1.125 1.125 0 0 Z " fill="#6BB7AD" transform="translate(10,8)"/>
<path d="M0 0 C2.5 1.375 2.5 1.375 5 3 C5 3.66 5 4.32 5 5 C3 6 1 7 -1 8 C-0.67 5.36 -0.34 2.72 0 0 Z " fill="#D87DA1" transform="translate(23,6)"/>
<path d="M0 0 C-1.38009621 3.33523252 -2.84950652 5.18607951 -6 7 C-6.99 6.67 -7.98 6.34 -9 6 C-7.8803014 4.99406757 -6.7540588 3.9954151 -5.625 3 C-4.68527344 2.1646875 -4.68527344 2.1646875 -3.7265625 1.3125 C-2 0 -2 0 0 0 Z " fill="#2C5C6D" transform="translate(10,3)"/>
</svg>